<svg id="Layer_1" data-name="Layer 1" xmlns="http://www.w3.org/2000/svg" xmlns:xlink="http://www.w3.org/1999/xlink" viewBox="0 0 500 500"><defs><style>.cls-1{fill:url(#linear-gradient);}.cls-2{fill:url(#linear-gradient-2);}.cls-3{fill:url(#linear-gradient-3);}.cls-4{fill:url(#linear-gradient-4);}.cls-5{fill:url(#linear-gradient-5);}.cls-6{fill:url(#linear-gradient-6);}.cls-7{fill:url(#linear-gradient-7);}.cls-8{fill:url(#linear-gradient-8);}.cls-9{fill:url(#linear-gradient-9);}.cls-10{fill:url(#linear-gradient-10);}.cls-11{fill:url(#linear-gradient-11);}.cls-12{fill:url(#linear-gradient-12);}.cls-13{fill:url(#linear-gradient-13);}.cls-14{fill:url(#linear-gradient-14);}.cls-15{fill:url(#linear-gradient-15);}</style><linearGradient id="linear-gradient" x1="0.89" y1="480.4" x2="497.85" y2="-11.86" gradientUnits="userSpaceOnUse"><stop offset="0" stop-color="#0b3958"/><stop offset="0.15" stop-color="#15547d"/><stop offset="0.3" stop-color="#146393"/><stop offset="0.45" stop-color="#13699a"/><stop offset="0.6" stop-color="#136899"/><stop offset="1" stop-color="#fcfcfc"/></linearGradient><linearGradient id="linear-gradient-2" x1="13.06" y1="492.69" x2="510.02" y2="0.43" xlink:href="#linear-gradient"/><linearGradient id="linear-gradient-3" x1="28.45" y1="508.21" x2="525.4" y2="15.95" xlink:href="#linear-gradient"/><linearGradient id="linear-gradient-4" x1="38.52" y1="518.39" x2="535.48" y2="26.12" xlink:href="#linear-gradient"/><linearGradient id="linear-gradient-5" x1="46.28" y1="526.22" x2="543.24" y2="33.96" xlink:href="#linear-gradient"/><linearGradient id="linear-gradient-6" x1="56.64" y1="536.68" x2="553.6" y2="44.42" xlink:href="#linear-gradient"/><linearGradient id="linear-gradient-7" x1="67.48" y1="547.62" x2="564.44" y2="55.36" xlink:href="#linear-gradient"/><linearGradient id="linear-gradient-8" x1="82.38" y1="562.67" x2="579.34" y2="70.4" xlink:href="#linear-gradient"/><linearGradient id="linear-gradient-9" x1="95.58" y1="575.99" x2="592.54" y2="83.73" xlink:href="#linear-gradient"/><linearGradient id="linear-gradient-10" x1="106.93" y1="587.45" x2="603.88" y2="95.18" xlink:href="#linear-gradient"/><linearGradient id="linear-gradient-11" x1="120.63" y1="601.28" x2="617.59" y2="109.02" xlink:href="#linear-gradient"/><linearGradient id="linear-gradient-12" x1="134.43" y1="615.21" x2="631.39" y2="122.95" xlink:href="#linear-gradient"/><linearGradient id="linear-gradient-13" x1="147.02" y1="627.92" x2="643.97" y2="135.66" xlink:href="#linear-gradient"/><linearGradient id="linear-gradient-14" x1="0.64" y1="477.78" x2="493.68" y2="-11.74" gradientUnits="userSpaceOnUse"><stop offset="0" stop-color="#0b3958"/><stop offset="0.15" stop-color="#15547d"/><stop offset="0.3" stop-color="#146393"/><stop offset="0.45" stop-color="#13699a"/><stop offset="0.6" stop-color="#009fe3"/><stop offset="1" stop-color="#fcfcfc"/></linearGradient><linearGradient id="linear-gradient-15" x1="-11.43" y1="532.42" x2="547.23" y2="-22.25" xlink:href="#linear-gradient-14"/></defs><path class="cls-1" d="M93.89,391.52V363.38h4.25l13.47,21.13V363.46h4V391.6h-4.25L97.94,370.68v20.84Z"/><path class="cls-2" d="M120.55,382.9V363.46H125v19.48a6.18,6.18,0,0,0,.34,2.17,3.85,3.85,0,0,0,1,1.52,5.5,5.5,0,0,0,1.51,1,7.38,7.38,0,0,0,1.82.5,14.43,14.43,0,0,0,4,0,7.5,7.5,0,0,0,1.82-.5,5.2,5.2,0,0,0,1.48-1,4,4,0,0,0,1-1.54,6,6,0,0,0,.36-2.15V363.46h4.41V382.9a11.29,11.29,0,0,1-.52,3.55,6.88,6.88,0,0,1-1.53,2.59,7.63,7.63,0,0,1-2.36,1.66,12.44,12.44,0,0,1-3.09.92,21,21,0,0,1-3.61.3,20.27,20.27,0,0,1-3.56-.3,12.67,12.67,0,0,1-3.07-.92,7.44,7.44,0,0,1-2.37-1.66,7.28,7.28,0,0,1-1.52-2.59A10.72,10.72,0,0,1,120.55,382.9Z"/><path class="cls-3" d="M147.61,391.52V363.46h4.61l8.29,14,8.34-14h4.37v28.06h-4.09V370.28l-7.69,12.78h-2.13l-7.62-12.74v21.2Z"/><path class="cls-4" d="M178.51,391.52V363.46H183v28.06Z"/><path class="cls-5" d="M198,391.92c-1.15,0-2.28,0-3.39,0s-2.18-.06-3.22-.12l-3.17-.16V363.46c1.15-.1,2.25-.18,3.29-.24l3.06-.12c1,0,2,0,3.11,0a16.37,16.37,0,0,1,7.56,1.51,9.06,9.06,0,0,1,4.25,4.69,21.62,21.62,0,0,1,1.34,8.27,20.45,20.45,0,0,1-1.4,8.16,9.47,9.47,0,0,1-4.27,4.71A15.09,15.09,0,0,1,198,391.92Zm.12-3.56a8.41,8.41,0,0,0,4.47-1.09,6.73,6.73,0,0,0,2.71-3.44,17.68,17.68,0,0,0,.92-6.26,18.54,18.54,0,0,0-.9-6.41,6.48,6.48,0,0,0-2.71-3.43,9.23,9.23,0,0,0-4.69-1.06l-1.62,0-1.83.06-1.72.08v21.33l1.3.08,1.43.06,1.38,0Z"/><path class="cls-6" d="M215.11,391.52V363.46h4.49v28.06Z"/><path class="cls-7" d="M222.64,391.52l9.38-28.3h5.17l9.5,28.3h-4.93l-2.12-6.61H229.42l-2.13,6.61Zm7.66-10.34h8.5l-4.25-14Z"/><path class="cls-8" d="M278.4,364.35l-.88,3.52a16.62,16.62,0,0,0-1.73-.5c-.64-.14-1.31-.27-2-.38s-1.39-.18-2.09-.24-1.36-.08-2-.08a8.81,8.81,0,0,0-4.49,1,3.15,3.15,0,0,0-1.68,2.85,3.07,3.07,0,0,0,.4,1.6,4.34,4.34,0,0,0,1.32,1.32,11.92,11.92,0,0,0,2.41,1.23c1,.39,2.17.78,3.56,1.18a25.74,25.74,0,0,1,3.85,1.48,12.06,12.06,0,0,1,2.65,1.75,5.8,5.8,0,0,1,1.52,2.16,7.73,7.73,0,0,1,.48,2.83,6.89,6.89,0,0,1-1.32,4.27,8.16,8.16,0,0,1-3.87,2.66,18,18,0,0,1-6.15.92c-.83,0-1.69,0-2.59-.12s-1.81-.19-2.74-.34a25.18,25.18,0,0,1-2.67-.54,23,23,0,0,1-2.26-.68l1-3.53c.67.24,1.39.46,2.18.66s1.61.39,2.45.55a24.18,24.18,0,0,0,2.52.34c.85.06,1.63.1,2.35.1a12.17,12.17,0,0,0,3.63-.47,4.52,4.52,0,0,0,2.2-1.34,3.25,3.25,0,0,0,.74-2.16,2.69,2.69,0,0,0-.52-1.61,4.84,4.84,0,0,0-1.54-1.3,19.44,19.44,0,0,0-2.63-1.18c-1.07-.4-2.34-.83-3.81-1.28a23.75,23.75,0,0,1-3.46-1.53,9.86,9.86,0,0,1-2.41-1.78,6.06,6.06,0,0,1-1.38-2.19,7.69,7.69,0,0,1-.44-2.72,7.2,7.2,0,0,1,.66-3.09,6.72,6.72,0,0,1,2-2.44,9.91,9.91,0,0,1,3.39-1.63,17.64,17.64,0,0,1,4.73-.58,29.1,29.1,0,0,1,3.19.18c1.08.12,2.09.28,3,.48S277.73,364.13,278.4,364.35Z"/><path class="cls-9" d="M282.53,378a21.55,21.55,0,0,1,1.44-8.59,9.57,9.57,0,0,1,4.31-4.79,15,15,0,0,1,7.11-1.53c.8,0,1.57,0,2.29,0a20.23,20.23,0,0,1,2,.18q.94.15,1.83.36c.58.15,1.2.33,1.84.55l-.92,3.56c-.78-.18-1.53-.35-2.27-.5A20.74,20.74,0,0,0,298,367c-.72-.05-1.47-.08-2.25-.08a11.54,11.54,0,0,0-3.8.58,6.17,6.17,0,0,0-2.73,1.87,8.42,8.42,0,0,0-1.62,3.4,21.54,21.54,0,0,0-.54,5.21,19.46,19.46,0,0,0,.5,4.79,7.17,7.17,0,0,0,1.58,3.17,6.15,6.15,0,0,0,2.67,1.71,12.06,12.06,0,0,0,3.7.52,30,30,0,0,0,3.93-.27,24.86,24.86,0,0,0,3.73-.74l.8,3.53a11.82,11.82,0,0,1-1.94.58c-.68.15-1.41.28-2.19.38s-1.57.19-2.4.24-1.7.08-2.61.08a17.12,17.12,0,0,1-5.33-.74,9.13,9.13,0,0,1-3.87-2.4,10.23,10.23,0,0,1-2.34-4.31A23.76,23.76,0,0,1,282.53,378Z"/><path class="cls-10" d="M307.74,391.52V363.46h4.49v13.59h13.31V363.46H330v28.06h-4.49V381.06H312.23v10.46Z"/><path class="cls-11" d="M346.58,391.92a17.1,17.1,0,0,1-4.05-.44,10.76,10.76,0,0,1-3.41-1.46,9,9,0,0,1-2.64-2.69,12.74,12.74,0,0,1-1.66-4.1,24.9,24.9,0,0,1-.59-5.74,26.35,26.35,0,0,1,.56-5.77,12.89,12.89,0,0,1,1.65-4.11A9,9,0,0,1,339,365a10.7,10.7,0,0,1,3.39-1.45,19.42,19.42,0,0,1,8.22,0A10.7,10.7,0,0,1,354,365a9.22,9.22,0,0,1,2.6,2.64,13.12,13.12,0,0,1,1.68,4.07,23.45,23.45,0,0,1,.61,5.71,24.65,24.65,0,0,1-.61,5.88,13.57,13.57,0,0,1-1.68,4.14,8.63,8.63,0,0,1-2.6,2.67,10.64,10.64,0,0,1-3.39,1.42A17.33,17.33,0,0,1,346.58,391.92Zm-.08-3.56A9.48,9.48,0,0,0,349,388a6.72,6.72,0,0,0,2.17-1.05,6.48,6.48,0,0,0,1.7-1.94,10.24,10.24,0,0,0,1.11-3.11,23,23,0,0,0,.38-4.45,22.46,22.46,0,0,0-.4-4.49,10.73,10.73,0,0,0-1.11-3.1,6.22,6.22,0,0,0-1.68-1.95,6.7,6.7,0,0,0-2.17-1,9.48,9.48,0,0,0-2.46-.32,8.88,8.88,0,0,0-2.38.32,7,7,0,0,0-2.13,1,6,6,0,0,0-1.7,2,11,11,0,0,0-1.13,3.12,22.39,22.39,0,0,0-.4,4.51,21.55,21.55,0,0,0,.4,4.41,10.8,10.8,0,0,0,1.13,3.09,6.2,6.2,0,0,0,1.7,2,6.62,6.62,0,0,0,2.13,1.05A8.88,8.88,0,0,0,346.5,388.36Z"/><path class="cls-12" d="M374.44,391.92a17.1,17.1,0,0,1-4.05-.44A10.67,10.67,0,0,1,367,390a9,9,0,0,1-2.64-2.69,13,13,0,0,1-1.67-4.1,25.51,25.51,0,0,1-.58-5.74,26.35,26.35,0,0,1,.56-5.77,12.89,12.89,0,0,1,1.65-4.11,9,9,0,0,1,2.6-2.66,10.7,10.7,0,0,1,3.39-1.45,19.42,19.42,0,0,1,8.22,0,10.55,10.55,0,0,1,3.38,1.45,9.12,9.12,0,0,1,2.61,2.64,13.12,13.12,0,0,1,1.68,4.07,24,24,0,0,1,.6,5.71,25.22,25.22,0,0,1-.6,5.88,13.57,13.57,0,0,1-1.68,4.14,8.55,8.55,0,0,1-2.61,2.67,10.49,10.49,0,0,1-3.38,1.42A17.39,17.39,0,0,1,374.44,391.92Zm-.08-3.56a9.54,9.54,0,0,0,2.46-.32A6.72,6.72,0,0,0,379,387a6.48,6.48,0,0,0,1.7-1.94,10,10,0,0,0,1.1-3.11,22.23,22.23,0,0,0,.38-4.45,21.74,21.74,0,0,0-.4-4.49,10.74,10.74,0,0,0-1.1-3.1A6.22,6.22,0,0,0,379,368a6.7,6.7,0,0,0-2.17-1,9.54,9.54,0,0,0-2.46-.32,9,9,0,0,0-2.39.32,7,7,0,0,0-2.12,1,6.05,6.05,0,0,0-1.71,2A11,11,0,0,0,367,373a21.68,21.68,0,0,0-.4,4.51,20.87,20.87,0,0,0,.4,4.41,10.8,10.8,0,0,0,1.12,3.09,6.22,6.22,0,0,0,1.71,2A6.67,6.67,0,0,0,372,388,9,9,0,0,0,374.36,388.36Z"/><path class="cls-13" d="M391,391.52V363.46h4.49v24.18h13.19v3.88Z"/><path class="cls-14" d="M408.75,344a59.62,59.62,0,0,1-29.5,7.76c-.32,0-.64,0-1,0-11.77-.18-33.86-10.45-47.38-24.54l-14.83-15.49h0l-14.33-15-27.32-28.52L263.2,256.55l-3.71-3.87-55-58.08v58.08h46.36l7.53,7.53,2.45,2.45H204.48v30a17.73,17.73,0,0,0,17.73,17.72h-67a17.74,17.74,0,0,0,14.54-17.44v-129a19.61,19.61,0,0,0-1.58-7.67,65.26,65.26,0,0,0-12.76-19.4,68.81,68.81,0,0,0-18.89-14,71.38,71.38,0,0,0-32.28-7.62,72.28,72.28,0,0,0-13,1.17,59.7,59.7,0,0,1,30.47-8.3h.84a59.83,59.83,0,0,1,42.29,18.27s0,0,0,0l159.73,169,13,13.75,10.84,11.48a67.41,67.41,0,0,0,6.6,6.6,70.59,70.59,0,0,0,46.47,17.15A72,72,0,0,0,408.75,344Z"/><path class="cls-15" d="M380.28,230a58.77,58.77,0,0,0-12.89-18.44,95.61,95.61,0,0,0-18.15-13.65,213.36,213.36,0,0,0-20.83-10.64q-12-5.7-22.5-11.1a57.18,57.18,0,0,1-16.79-12.44q-6.28-7-6.29-18.14,0-12,8.09-17.69t24-5.7q16.79,0,27.74,10.79,8.19,8.08,14,25.43A18.61,18.61,0,0,0,374.29,171h0l-1.48-51.57a11.72,11.72,0,0,0-11.72-11.39h0c-.6,3-1.8,4.94-3.6,5.85a12.1,12.1,0,0,1-5.4,1.34,24.12,24.12,0,0,1-8.39-1.8,110.54,110.54,0,0,0-12.14-3.59,80.36,80.36,0,0,0-18.75-1.8q-20.4,0-35.38,5.69t-23.09,16.79q-8.1,11.1-8.1,27.89,0,18.3,7.2,29.84a60.62,60.62,0,0,0,19.19,19.19A283.8,283.8,0,0,0,298.42,222q11.7,5.4,21.74,11.25a55.19,55.19,0,0,1,16.34,14.09q6.3,8.26,6.29,21.14,0,9.9-5.39,15.74h0a6.4,6.4,0,0,0,0,9.05l7.49,7.5a9.32,9.32,0,0,0,10.79,1.72A55.32,55.32,0,0,0,375.63,286q9.45-12.74,9.44-31.33Q385.07,240.63,380.28,230Z"/><path d="M391.57,108.89h-3.81v-.81h8.51v.81h-3.81V119.4h-.89Z"/><path d="M407.88,114.19c0-2.21,0-4.33.06-5.47h-.05c-.45,1.52-2.75,7.11-4.19,10.68h-.85c-1.09-2.77-3.47-9-4-10.69h0c.08,1.29.12,3.93.12,5.87v4.82h-.88V108.08h1.31c1.56,3.88,3.51,9,3.94,10.24h0c.26-.83,2.52-6.47,4.11-10.24h1.29V119.4h-.87Z"/></svg>